<svg width="220" height="147" viewBox="0 0 220 147" fill="none" xmlns="http://www.w3.org/2000/svg">
<path d="M220 0.142294L0.107758 0L-5.98083e-05 146.144L219.892 146.287L220 0.142294Z" fill="white"/>
<path fill-rule="evenodd" clip-rule="evenodd" d="M0.00643921 146.268C1.98127 143.764 3.56844 141.088 6.6006 138.87C11.2635 135.459 16.1339 135.74 20.4446 132.325C24.4855 129.369 26.1493 124.501 30.8439 121.135C35.3674 117.892 40.0827 117.959 44.6883 114.59C48.715 111.644 50.3585 106.885 55.0403 103.434C59.7458 100.018 64.8093 99.8703 68.8364 96.9243C73.4413 93.5557 74.7746 89.0635 79.2355 85.7344C83.8644 82.2795 89.0386 82.1456 93.0798 79.1892C97.6412 76.1137 98.8173 71.4096 103.48 67.9986C108.142 64.5882 112.831 64.7402 117.323 61.4542C121.759 58.2095 123.757 53.3105 127.661 50.1784C131.568 47.0446 137.765 46.1806 141.568 43.7184C145.371 41.2565 147.859 35.468 151.881 32.526C151.988 32.4471 152.098 32.3711 152.206 32.2959C152.312 32.2144 152.417 32.1334 152.524 32.0553C156.547 29.1127 162.85 28.4693 166.346 25.5923C169.841 22.7152 172.509 17.0944 176.682 14.3175C180.852 11.5431 186.154 11.1014 190.59 7.85673C193.721 5.56591 195.275 2.68857 197.509 0L220 0.0155522L219.991 13.1793C218.395 13.7639 216.862 14.4409 215.439 15.4821C215.382 15.5238 215.325 15.5658 215.269 15.6087C215.268 15.6089 215.268 15.6089 215.268 15.6089L215.268 15.6091C215.21 15.65 215.153 15.6917 215.096 15.7335C210.936 18.7764 209.492 23.6301 204.571 27.169C200.323 30.5792 194.899 30.4466 190.974 33.318C186.927 36.2789 185.157 41.5539 180.656 44.6642C176.208 48.1002 170.702 48.1484 166.743 51.0445C166.605 51.145 166.47 51.2483 166.337 51.3538C166.196 51.4491 166.058 51.5453 165.921 51.6457C161.962 54.542 160.281 59.7515 155.658 62.9508C151.333 66.2975 145.736 66.4117 141.689 69.3722C137.764 72.2438 136.283 77.4272 131.743 80.4463C126.881 84.0639 121.786 83.9936 117.626 87.0367C113.595 89.9857 111.203 95.4719 107.172 98.4211C103.15 101.363 97.2784 101.922 93.256 104.865C89.2333 107.807 87.0592 113.134 83.0372 116.076C78.9789 119.045 73.1694 119.438 69.1108 122.407C69.1098 122.408 69.1094 122.408 69.109 122.408C69.1081 122.409 69.1078 122.409 69.1065 122.41C65.0478 125.379 62.9488 130.772 58.8892 133.742C54.8674 136.684 49.1014 137.165 45.078 140.109C42.892 141.708 41.2207 144.033 39.5052 146.296L0.00643921 146.268Z" fill="#18537E"/>
<path fill-rule="evenodd" clip-rule="evenodd" d="M149.261 0.102774L149.262 0.102594L193.004 0.132727C191.821 1.65263 190.476 3.15118 188.654 4.46787C184.408 7.88935 178.989 7.75519 175.068 10.6364C171.024 13.607 169.256 18.9003 164.759 22.0217C160.315 25.4687 154.813 25.5164 150.858 28.4222C150.721 28.523 150.586 28.6272 150.453 28.7332C150.312 28.8286 150.174 28.9246 150.037 29.0254C146.081 31.9314 144.403 37.159 139.784 40.3697C135.463 43.727 129.87 43.8409 125.827 46.8113C121.905 49.6925 120.426 54.8942 115.89 57.9237C111.032 61.5531 105.941 61.4814 101.785 64.5348C97.7574 67.4937 95.369 72.9997 91.3411 75.959C87.3231 78.9107 81.4557 79.4698 77.4369 82.4222C73.418 85.3747 71.247 90.7211 67.2286 93.6733C63.1737 96.6522 57.3685 97.0444 53.3136 100.023C53.3125 100.024 53.3124 100.024 53.3118 100.025C53.3109 100.025 53.3104 100.026 53.3093 100.026C49.2542 103.006 47.1582 108.418 43.1022 111.398C39.0838 114.35 33.322 114.831 29.3022 117.785C25.2832 120.737 23.0076 126.16 18.9895 129.112C14.9614 132.072 8.9813 132.713 4.95355 135.672C2.88753 137.19 1.49203 139.158 0.00643921 141.19L0.0217231 118.982L0.0215433 118.982L0.104076 0L149.261 0.102774Z" fill="#2B5A51"/>
</svg>
